<svg xmlns="http://www.w3.org/2000/svg" xmlns:xlink="http://www.w3.org/1999/xlink" version="1.1" x="0" y="0" viewBox="21.475908279418945 6.100001811981201 57.239349365234375 90.10000610351562" enable-background="new 0 0 100 100" xml:space="preserve" height="86.26461586732033" width="54.802776370673556" class="icon-icon-0" data-fill-palette-color="accent" id="icon-0"><g fill="#030303" data-fill-palette-color="accent"><path fill="#030303" d="M63.9 37.3C63.9 37.3 63.9 37.3 63.9 37.3 63.9 37.3 63.8 37.3 63.9 37.3c-0.8-0.3-0.8-0.9-0.8-1.1 0-0.3 0.2-0.6 0.8-0.7l6.9 1.5c0.8 0 1.4-0.6 1.5-1.4 0-0.6 0.3-2.7 0.3-3.6 0-0.1-0.1-0.2-0.2-0.2-0.2 0-1.6-0.3-2-0.5-0.6-0.2-1.6-0.7-1.9-1-0.7-0.5-0.8-1.4-0.2-2.1 0.4-0.5 0.9-0.5 1.5-0.2 0.1 0 0.2 0.1 0.4 0.2 0.2 0.1 0.6 0.4 1.2 0.5C71.7 29 72 29 72.5 29c0.2 0 0.3-0.1 0.3-0.3 0-1.1 0-2.3 0-3.3 0 0 0 0 0 0h1.6c0.4 0 0.7-0.1 1-0.4 0.7-0.6 0.7-1.5 0.2-2.1 0 0-2.8-3.4-3.6-4.3-0.1-0.1-0.3-0.4-0.3-0.5-0.6-1.5-1.3-3.8-2.1-5.6-0.3-0.7-0.6-1.3-0.9-2-1.2-3-5-4.4-11.3-4.4-5 0-9 2-10.4 3.6-0.3 0.4-0.2 1 0.1 1.4 3.6 5.6 4.4 15.3 3 20.8-0.6 2.4-2.3 5.1-10.3 6.5-2.7 0.5-5.4-0.3-7.9-2.3 0 0 0 0 0 0 0 0-2.2-1.9-4-4.5-0.4-0.6-1.3-1-2-0.6-0.3 0.2-0.4 1.4 0 2.1 0.1 0.1 0.6 2 2.5 4 0.3 0.3 0.4 0.8 0.2 1.3-0.3 0.6-0.7 1.5-1 1.9-2.5 5-4.1 8.3-5.2 16-0.1 0.8 0.6 1.4 1.3 1.2l0 0 1.6-0.4 22.1-5.2c0.2-0.1 0.4-0.2 0.4-0.5l1.5-5c0.2-0.9 1.1-1.6 2-1.4 0.9 0.2 1.5 1.1 1.4 2L52.4 50c0 0.2 0.2 0.4 0.4 0.3l6.1-2.1c0.9-0.3 1.9 0.2 2.2 1.1 0.3 0.9-0.2 1.9-1.1 2.2l-3 1c-0.3 0.1-0.4 0.5-0.2 0.8 0 0 0 0 0 0 0.1 0.2 0.3 0.2 0.5 0.2l5-1c0.9-0.2 1.9 0.4 2 1.3 0.2 0.9-0.4 1.9-1.4 2l-4.9 1c-0.2 0-0.3 0.2-0.4 0.4 0 0 0 0 0 0 0 0.3 0.2 0.6 0.5 0.6l2.4-0.3c1-0.1 1.8 0.6 1.9 1.5 0.1 0.9-0.6 1.8-1.5 1.9 0 0-7.1 0.7-7.6 0.8 0 0 0 0 0 0l-28.9 7.3L23 69.5l-1.1 0.3c-0.2 0.1-0.4 0.3-0.4 0.5-0.3 9 2.2 15.3 7.6 19.4 4.7 3.6 11.8 5.5 22.8 6.3 1.8 0.1 3.4 0.2 4.8 0.2 8.4 0 10.7-2.3 12.5-7 0.1-0.3 0-0.5-0.3-0.6l-14.1-6.8c-0.1-0.1-0.3-0.1-0.4-0.1l-6.5-2.2c-0.9-0.3-1.4-1.3-1.1-2.2 0.3-0.9 1.3-1.4 2.2-1.1l2.3 0.8c0.3 0.1 0.6-0.1 0.6-0.4 0 0 0 0 0 0 0-0.2-0.1-0.4-0.3-0.4l-4.4-1.9c-0.9-0.4-1.3-1.4-0.9-2.3s1.4-1.3 2.3-0.9l4.5 2c0.2 0.1 0.3 0 0.5-0.1 0 0 0.1-0.1 0.1-0.1 0.2-0.2 0.2-0.5-0.1-0.7l-2.8-1.7c-0.8-0.5-1.1-1.6-0.6-2.4 0.5-0.8 1.5-1.1 2.4-0.6l5 3.1c0.3 0.2 0.6 0 0.7-0.4l0.4-3c0-1 0.8-1.7 1.8-1.7 1 0 1.7 0.8 1.7 1.8l-0.1 4.8c0 0.4 0.2 0.7 0.5 0.8l10 4.9c0.5 0.2 1 0 1.2-0.5 4.1-9.9 5.5-18.4 4.7-27.9C77.8 43.2 66.2 38.2 63.9 37.3zM60.6 20.1c-0.5-0.6-0.4-1.4 0.1-1.9 0.5-0.5 1.4-0.4 1.9 0.1 0.4 0.4 1.4 1.3 2.2 1.2 0.6-0.1 1.2-0.9 1.5-1.6 0.3-0.6 0.9-0.9 1.4-0.8 0.1 0 0.2 0 0.3 0.1 0.7 0.3 1 1.1 0.7 1.7-0.1 0.2-0.2 0.3-0.3 0.5-0.8 1.6-1.9 2.5-3.2 2.7-0.2 0-0.4 0-0.6 0C62.5 22.2 60.8 20.4 60.6 20.1z" data-fill-palette-color="accent"></path><path fill="#030303" d="M31 26.1c0.6 0 1.3-0.1 1.9-0.4 1.5-0.7 2.2-1.3 2.5-3.5 0.1-0.8-0.3-2.5-1.2-2.6-0.8-0.1-1.6 0.5-1.7 1.3-0.1 0.7-0.3 1.8-0.9 2.1-0.7 0.4-2-0.2-2.6-0.5-0.7-0.4-1.6-0.2-2.1 0.5-0.4 0.7 0.4 2 1.1 2.4C28.2 25.5 29.2 26.1 31 26.1z" data-fill-palette-color="accent"></path><path fill="#030303" d="M39.2 20.4c0.2 0.1 1.3 0.8 3.2 0.8 0.7 0 1.3-0.1 2-0.4 1.5-0.7 2.3-1.5 2.6-3.9 0.1-0.8-0.4-2.4-1.2-2.5-0.8-0.1-1.6 0.5-1.7 1.3-0.1 0.9-0.4 2-1.1 2.3-0.8 0.4-2.3-0.2-2.9-0.6C39.4 17 38.5 17.3 38 18 37.6 18.7 38.4 20 39.2 20.4z" data-fill-palette-color="accent"></path><path fill="#030303" d="M36.8 28.8c-0.3 0.7 0.6 1.9 1.4 2.3 1.2 0.6 1.6 0.6 2.7 0.6 0.6 0 1.1-0.1 1.7-0.3 1.1-0.4 2-1 3-3.2 0.4-0.8 0.3-2.5-0.5-2.8-0.8-0.2-1.5 0.2-1.8 1-0.3 0.8-0.8 1.8-1.7 2.1-0.7 0.2-1.5 0.1-2.5-0.5C38.1 27.6 37.2 28 36.8 28.8z" data-fill-palette-color="accent"></path></g></svg>